<svg width="65" height="65" fill="none" xmlns="http://www.w3.org/2000/svg"><circle cx="32.5" cy="32.5" r="32.5" fill="#003B71"/><path fill-rule="evenodd" clip-rule="evenodd" d="M34.38 40.16a1.299 1.299 0 0 1-.988-.46 1.272 1.272 0 0 1 .167-1.8 6.59 6.59 0 0 0 .357-9.87 1.28 1.28 0 1 1 1.778-1.84 9.036 9.036 0 0 1 2.841 6.61 9.126 9.126 0 0 1-3.334 7.06c-.23.193-.52.299-.821.3zm4.17 4.97a1.464 1.464 0 0 1-1.119-.51 1.442 1.442 0 0 1-.365-1.07 1.462 1.462 0 0 1 .5-1.01 12.874 12.874 0 0 0 .61-18.91 1.467 1.467 0 0 1-.326-1.605c.074-.178.184-.34.322-.476a1.525 1.525 0 0 1 2.1-.01 15.805 15.805 0 0 1-.751 23.22 1.472 1.472 0 0 1-.971.37zm.679-23.62a1.1 1.1 0 0 0-1 .668 1.07 1.07 0 0 0 .235 1.171 13.278 13.278 0 0 1-.631 19.5 1.038 1.038 0 0 0-.366.73 1.064 1.064 0 0 0 .265.78 1.112 1.112 0 0 0 1.525.1 15.399 15.399 0 0 0 .731-22.63 1.05 1.05 0 0 0-.759-.32zm4.124 27.14a1.483 1.483 0 0 1-1.055-.43 1.471 1.471 0 0 1 .009-2.09 18.674 18.674 0 0 0 .028-26.62 1.472 1.472 0 0 1 0-2.09 1.524 1.524 0 0 1 2.1 0 21.6 21.6 0 0 1-.033 30.8 1.464 1.464 0 0 1-1.049.43zm.031-31.26a1.069 1.069 0 0 0-.763 1.83 19.087 19.087 0 0 1-.029 27.2 1.058 1.058 0 0 0-.006 1.51 1.114 1.114 0 0 0 1.529.01 21.213 21.213 0 0 0 .032-30.24 1.083 1.083 0 0 0-.763-.31zM15.81 37.94h1.59l12.007-11.56v-4.55l-8.919 5.87H15.81a.807.807 0 0 0-.81.8v8.64a.807.807 0 0 0 .81.8zm1.518-7.77h1.552v5.63h-1.552v-5.63zm2.4 7.77h.762l8.919 5.87V28.62l-9.681 9.32z" fill="#fff"/></svg>