<svg width="65" height="65" fill="none" xmlns="http://www.w3.org/2000/svg"><circle cx="32.5" cy="32.5" r="32.5" fill="#003B71"/><path d="M47.5 41.778V23.222C47.5 14.556 40.542 7.5 32 7.5s-15.5 7.056-15.5 15.722v18.556C16.5 50.444 23.458 57.5 32 57.5s15.5-7.056 15.5-15.722zm-29.925 0V23.222c0-8.055 6.449-14.666 14.425-14.666 7.92 0 14.425 6.555 14.425 14.666v18.556c0 8.055-6.449 14.666-14.425 14.666-7.976 0-14.425-6.61-14.425-14.666zm27.775.389v-.556c-.113-3.333-1.584-6.389-3.903-8.611v-.889c2.206-2.333 3.564-5.389 3.564-8.778v-.222c0-.333 0-.611-.057-.944-.622-6.556-6.279-11.723-13.124-11.723-6.845 0-12.502 5.112-13.124 11.723 0 .333-.056.666-.056 1v.222c0 3.611 1.527 6.889 3.96 9.222v.722c-2.094 2.167-3.451 5.111-3.564 8.334v.555c0 7.111 5.883 12.945 13.18 12.945 7.241-.056 13.124-5.834 13.124-13zm-10.748 11.61a3.726 3.726 0 0 0 1.018-2.555v-2.389c0-1.944 1.64-3.555 3.677-3.555h2.433c.848 0 1.697-.278 2.32-.778-.962 4.667-4.696 8.333-9.448 9.278zm9.278-31.555c-10.862.5-7.411-5.889-5.375-8.778 2.942 1.945 5.035 5.167 5.375 8.778zM31.83 11.5c1.98 0 3.904.5 5.544 1.333-1.301 3.223-5.148 10.556-10.692-.222A12.214 12.214 0 0 1 31.83 11.5zM19.781 22.222c.396-3.778 2.602-7.055 5.713-8.944 1.98 2.61 6.28 9.722-5.713 8.944zm9.843.834c0-1.223 1.018-2.167 2.206-2.167s2.207.944 2.207 2.167c0 1.222-1.019 2.166-2.207 2.166s-2.206-.944-2.206-2.166zM23.797 33.61l-.056-1.444c-2.433-2.111-3.96-5.111-4.073-8.5 13.803-.945 5.827 9 4.808 10.166.396.278.849.5 1.301.723l.227-.278c6.449-14.722 11.257-1.5 11.88.222.508-.278 1.017-.556 1.527-.889-1.528-1.889-7.92-10.555 4.469-10-.057 3.333-1.471 6.222-3.734 8.278v1.389l.113.055a11.958 11.958 0 0 1 3.62 5.834c-.622-.39-1.357-.667-2.15-.667h-2.432c-1.98 0-3.677-1.611-3.677-3.556v-2.388c0-1.945-1.527-3.556-3.45-3.556-1.924 0-3.451 1.611-3.451 3.556v2.388c0 1.945-1.64 3.556-3.62 3.556h-2.49c-.792 0-1.527.222-2.15.667.567-2.111 1.754-4.056 3.338-5.556zm5.884 8.333c0-1.333 1.131-2.444 2.489-2.444 1.357 0 2.489 1.111 2.489 2.444 0 1.334-1.132 2.445-2.49 2.445-1.357-.056-2.488-1.111-2.488-2.445zm-9.39 2.612c.621.5 1.413.777 2.319.777h2.432c1.98 0 3.62 1.611 3.62 3.556v2.389c0 1 .396 1.889 1.019 2.555-4.696-1-8.43-4.666-9.39-9.277z" fill="#fff"/></svg>