<svg width="65" height="65" fill="none" xmlns="http://www.w3.org/2000/svg"><circle cx="32.5" cy="32.5" r="32.5" fill="#003B71"/><path d="M20.661 22.206a1.544 1.544 0 1 0 0-3.088 1.544 1.544 0 0 0 0 3.088zm23.678 23.676a1.544 1.544 0 1 0 0-3.088 1.544 1.544 0 0 0 0 3.088zm-23.678 0a1.544 1.544 0 1 0 0-3.088 1.544 1.544 0 0 0 0 3.088z" fill="#fff"/><path d="M46.912 15H18.088A3.097 3.097 0 0 0 15 18.088v28.824A3.097 3.097 0 0 0 18.088 50h28.824A3.097 3.097 0 0 0 50 46.912V18.088A3.097 3.097 0 0 0 46.912 15zm1.03 31.912c0 .566-.464 1.03-1.03 1.03H18.088c-.566 0-1.03-.464-1.03-1.03V18.088c0-.566.464-1.03 1.03-1.03h28.824c.566 0 1.03.464 1.03 1.03v28.824z" fill="#fff"/><path d="M44.339 22.206a1.544 1.544 0 1 0 0-3.088 1.544 1.544 0 0 0 0 3.088zM32.5 19.118A13.356 13.356 0 0 0 19.117 32.5c0 7.412 5.97 13.382 13.383 13.382 7.411 0 13.382-5.97 13.382-13.382S39.912 19.118 32.5 19.118zm.463 2.676c.051-.206.154-.412.206-.617 2.316.154 4.426.977 6.176 2.316-.669.36-1.338.772-1.956 1.286-.309.258-.617.515-.875.773-.257.257-.514.566-.772.875-.617.72-1.08 1.544-1.492 2.316a3.417 3.417 0 0 0-1.03-.31c-.103-.205-.154-.462-.257-.668a9.777 9.777 0 0 1-.463-2.986 9.77 9.77 0 0 1 .463-2.985zm-2.008-.515c-.36 1.133-.514 2.317-.514 3.5 0 1.236.206 2.471.566 3.603.051.103.051.206.103.258-.36.103-.67.309-.978.515-.103-.052-.257-.103-.36-.155-.67-.36-1.39-.772-2.008-1.287a8.961 8.961 0 0 1-.72-.617c-.206-.206-.464-.464-.618-.72-.515-.619-.926-1.34-1.287-2.008l-.154-.31a11.088 11.088 0 0 1 5.97-2.779zm-7.463 4.375c.36.67.772 1.339 1.287 1.956.257.31.515.618.772.875.257.258.566.515.875.772.72.618 1.544 1.081 2.316 1.493-.154.309-.257.67-.309 1.03-.206.102-.463.154-.669.257a9.777 9.777 0 0 1-2.985.463 9.777 9.777 0 0 1-2.985-.463c-.206-.052-.412-.155-.618-.206a11.339 11.339 0 0 1 2.316-6.177zm.515 14.36a11.404 11.404 0 0 1-2.728-5.97c1.132.36 2.316.515 3.5.515 1.235 0 2.47-.206 3.603-.566.103-.052.206-.052.257-.103.103.36.31.669.515.978-.052.103-.103.257-.154.36-.36.67-.773 1.39-1.287 2.007a8.939 8.939 0 0 1-.618.72c-.257.207-.515.464-.772.67-.618.515-1.338.927-2.007 1.287-.103 0-.206.051-.31.103zm8.03 3.192c-.052.206-.155.412-.207.618a11.34 11.34 0 0 1-6.176-2.317c.67-.36 1.338-.772 1.956-1.286.309-.258.617-.515.875-.772.257-.258.515-.567.772-.875.618-.721 1.08-1.544 1.493-2.317.308.155.669.258 1.029.31.103.205.154.463.257.668.31.978.464 1.956.464 2.986 0 1.03-.155 2.007-.464 2.985zM30.44 32.5c0-1.132.926-2.059 2.059-2.059 1.132 0 2.058.927 2.058 2.06a2.065 2.065 0 0 1-2.058 2.058 2.065 2.065 0 0 1-2.06-2.059zm3.603 11.22c.36-1.132.514-2.315.514-3.5 0-1.235-.206-2.47-.566-3.602-.051-.103-.051-.206-.103-.258.36-.103.67-.309.978-.514.103.051.258.103.36.154.67.36 1.39.772 2.008 1.287.257.206.515.412.72.617.206.206.464.464.618.721.515.618.927 1.338 1.287 2.007l.154.31a11.088 11.088 0 0 1-5.97 2.779zm7.463-4.374c-.36-.67-.772-1.339-1.287-1.956a13.293 13.293 0 0 0-.772-.875 12.91 12.91 0 0 0-.875-.772c-.72-.618-1.544-1.081-2.316-1.493.154-.309.257-.67.309-1.03.206-.102.463-.154.669-.257a9.777 9.777 0 0 1 2.985-.463c1.03 0 2.008.155 2.985.463.206.052.412.155.618.206a11.339 11.339 0 0 1-2.316 6.177zM40.22 30.44c-1.235 0-2.47.206-3.603.566-.103.052-.206.052-.257.103-.103-.36-.309-.669-.515-.978.052-.102.103-.257.155-.36.36-.669.772-1.39 1.286-2.007.206-.258.412-.515.618-.72.206-.207.463-.464.72-.618.618-.515 1.339-.927 2.008-1.287l.309-.155a11.404 11.404 0 0 1 2.728 5.97c-1.081-.308-2.265-.514-3.449-.514z" fill="#fff"/></svg>