<svg width="100" height="100" fill="none" xmlns="http://www.w3.org/2000/svg"><circle cx="50" cy="50" r="50" fill="#003B71"/><path d="M83.077 29.23H16.984v2.07h66.093v-2.07zm-.004 19.708H16.98v1.144h66.093v-1.144zm0 4.9H16.98v1.143h66.093v-1.143zm0 4.954H16.98v1.144h66.093v-1.144zm0-24.662H16.98v1.144h66.093V34.13zm0 4.954H16.98v1.143h66.093v-1.143zm0 4.9H16.98v1.144h66.093v-1.144zm0 19.708H16.98v1.143h66.093v-1.143zm0 5.008H16.98v2.07h66.093V68.7z" fill="#fff"/><path d="M19.102 68.728V31.273h-2.179v37.455h2.179zm63.914 0V31.273h-2.179v37.455h2.179zM60.717 47.414h-2.121v-5.88c0-3.484-3.84-6.315-8.598-6.315-4.758 0-8.599 2.831-8.599 6.315l-.057 5.88h-2.178c-1.09 0-2.007.762-2.121 1.796l-.058 12.74c.115 1.034 1.09 1.796 2.179 1.796h21.438c1.09 0 2.006-.762 2.121-1.796l.057-12.74c0-1.034-.974-1.796-2.063-1.796zm-6.42 0h-8.599v-6.097c0-1.743 1.95-2.94 4.3-2.94 2.35 0 4.241 1.197 4.241 2.94l.058 6.097z" fill="#fff"/></svg>