<svg width="65" height="65" fill="none" xmlns="http://www.w3.org/2000/svg"><circle cx="32.5" cy="32.5" r="32.5" fill="#003B71"/><path fill-rule="evenodd" clip-rule="evenodd" d="M23.858 18c-2.81 0-6.6.83-8.7 4.8-.483.904-.86 1.86-1.126 2.85a.95.95 0 0 0 .1.73.931.931 0 0 0 .585.44c.08.023.163.037.247.04a.968.968 0 0 0 .93-.72c.232-.847.557-1.665.969-2.44 1.3-2.47 3.7-3.77 6.923-3.77 2.642.083 5.235.738 7.6 1.92.158.067.328.102.5.1a.923.923 0 0 0 .431-.1 17.289 17.289 0 0 1 7.488-1.91h.368c3.147.08 5.386 1.35 6.658 3.75 5.581 10.55-8.21 21.09-14.4 25.13a1.046 1.046 0 0 1-1.174 0c-4.5-2.93-12.419-8.89-14.93-15.75l-.162-.44h5.108l2.03 4.43a.972.972 0 0 0 1.741.02l4.136-8.45.46 1a.965.965 0 0 0 .877.56.918.918 0 0 0 .4-.08.974.974 0 0 0 .561-.907.938.938 0 0 0-.086-.363l-1.3-2.86a.953.953 0 0 0-.872-.56.968.968 0 0 0-.863.53l-4.141 8.46-1.443-3.14a.965.965 0 0 0-.873-.56h-6.934a.972.972 0 0 0-.947 1.16l.008.04v.04a1 1 0 0 0 .024.29c2.06 7.99 11.008 14.83 16.159 18.2a3.04 3.04 0 0 0 3.279 0c6.63-4.33 21.369-15.69 15.047-27.64-1.6-3.02-4.472-4.68-8.312-4.78h-.368a19.215 19.215 0 0 0-7.867 1.85l-.14.07-.14-.07A19 19 0 0 0 23.861 18h-.004zm7.936 13.42a.87.87 0 1 0 .005 1.74.87.87 0 0 0-.005-1.74zm12.526-.3h-5.26a.972.972 0 0 0-.827.47l-3.173 5.29-.99-2.17a.962.962 0 0 0-.875-.56.979.979 0 0 0-.9.62.964.964 0 0 0 .025.74l1.745 3.83a.941.941 0 0 0 .8.56h.072a.956.956 0 0 0 .828-.46l3.837-6.39h4.717a.965.965 0 0 0 0-1.93" fill="#fff"/></svg>