<svg width="65" height="65" fill="none" xmlns="http://www.w3.org/2000/svg"><circle cx="32.5" cy="32.5" r="32.5" fill="#003B71"/><path d="M17.48 43.559c0 .8.63 1.441 1.416 1.441.787 0 1.416-.64 1.416-1.441.157-.96-.63-1.601-1.416-1.601-.786 0-1.415.64-1.415 1.6zm-3.774-3.683c0 .8.63 1.441 1.416 1.441.786 0 1.415-.64 1.415-1.441 0-.8-.629-1.441-1.415-1.441-.787-.16-1.416.48-1.416 1.441zm3.775 0c0 .8.629 1.441 1.415 1.441.787 0 1.416-.64 1.416-1.441 0-.8-.63-1.441-1.416-1.441-.786-.16-1.415.48-1.415 1.441zm-7.707-3.683c0 .8.63 1.441 1.416 1.441.786 0 1.415-.64 1.415-1.44 0-.801-.629-1.442-1.415-1.442s-1.416.48-1.416 1.441zm3.932 0c0 .8.63 1.441 1.416 1.441.786 0 1.415-.64 1.415-1.44 0-.801-.629-1.442-1.415-1.442-.787-.16-1.416.48-1.416 1.441zm3.775 0c0 .8.629 1.441 1.415 1.441.787 0 1.573-.64 1.573-1.44a1.59 1.59 0 0 0-1.573-1.602c-.786 0-1.415.64-1.415 1.601zm3.774 0c0 .8.63 1.441 1.416 1.441.786 0 1.415-.64 1.415-1.44.157-.962-.472-1.602-1.258-1.602-.944 0-1.573.64-1.573 1.601zm3.775 0c0 .8.629 1.441 1.415 1.441.787 0 1.416-.64 1.416-1.44 0-.801-.63-1.442-1.416-1.442-.629-.16-1.415.48-1.415 1.441zm3.931 0c0 .8.63 1.441 1.416 1.441.786 0 1.415-.64 1.415-1.44 0-.801-.629-1.442-1.415-1.442-.786-.16-1.416.48-1.416 1.441zM6 32.51c0 .8.63 1.441 1.415 1.441.787 0 1.416-.64 1.416-1.44 0-.801-.63-1.442-1.416-1.442C6.63 30.91 6 31.55 6 32.51zm3.774 0c0 .8.63 1.441 1.416 1.441.786 0 1.415-.64 1.415-1.44 0-.801-.629-1.442-1.415-1.442s-1.416.48-1.416 1.441zm3.932 0c0 .8.63 1.441 1.416 1.441.786 0 1.415-.64 1.415-1.44 0-.801-.629-1.442-1.415-1.442-.787-.16-1.416.48-1.416 1.441zm3.775 0c0 .8.629 1.441 1.415 1.441.787 0 1.416-.64 1.416-1.44 0-.801-.63-1.442-1.416-1.442-.786-.16-1.415.48-1.415 1.441zm3.774 0c0 .8.63 1.441 1.416 1.441.786 0 1.415-.64 1.415-1.44 0-.801-.629-1.442-1.415-1.442-.787-.16-1.416.48-1.416 1.441zm3.775 0c0 .8.629 1.441 1.415 1.441.787 0 1.416-.64 1.416-1.44 0-.801-.63-1.442-1.416-1.442-.629-.16-1.415.48-1.415 1.441zm3.931 0c0 .8.63 1.441 1.416 1.441.786 0 1.415-.64 1.415-1.44 0-.801-.629-1.442-1.415-1.442-.786-.16-1.416.48-1.416 1.441zM9.774 28.827c0 .801.63 1.441 1.416 1.441.786 0 1.415-.64 1.415-1.44 0-.801-.629-1.442-1.415-1.442s-1.416.64-1.416 1.441zm3.932 0c0 .801.63 1.441 1.416 1.441.786 0 1.415-.64 1.415-1.44 0-.801-.629-1.442-1.415-1.442-.787-.16-1.416.64-1.416 1.441zm3.775 0c0 .801.629 1.441 1.415 1.441.787 0 1.416-.64 1.416-1.44 0-.801-.63-1.442-1.416-1.442-.786-.16-1.415.64-1.415 1.441zm3.774 0c0 .801.63 1.441 1.416 1.441.786 0 1.415-.64 1.415-1.44 0-.801-.629-1.442-1.415-1.442-.787-.16-1.416.64-1.416 1.441zm3.775 0c0 .801.629 1.441 1.415 1.441.787 0 1.416-.64 1.416-1.44 0-.801-.63-1.442-1.416-1.442-.629-.16-1.415.64-1.415 1.441zm3.931 0c0 .801.63 1.441 1.416 1.441.786 0 1.415-.64 1.415-1.44 0-.801-.629-1.442-1.415-1.442-.786-.16-1.416.64-1.416 1.441zm-15.255-3.682c0 .8.63 1.44 1.416 1.44.786 0 1.415-.64 1.415-1.44 0-.801-.629-1.442-1.415-1.442-.787-.16-1.416.64-1.416 1.442zm3.775 0c0 .8.629 1.44 1.415 1.44.787 0 1.416-.64 1.416-1.44 0-.801-.63-1.442-1.416-1.442-.786-.16-1.415.64-1.415 1.442zm0-3.683c0 .8.629 1.44 1.415 1.44.787 0 1.416-.64 1.416-1.44 0-.801-.63-1.441-1.416-1.441-.786-.16-1.415.64-1.415 1.44zm30.038 22.097c0 .8-.629 1.441-1.415 1.441s-1.415-.64-1.415-1.441c0-.8.629-1.441 1.415-1.441s1.415.48 1.415 1.44zm3.775-3.683c0 .8-.63 1.441-1.415 1.441-.787 0-1.416-.64-1.416-1.441 0-.8.63-1.441 1.416-1.441.786-.16 1.415.48 1.415 1.441zm-3.775 0c0 .8-.629 1.441-1.415 1.441s-1.415-.64-1.415-1.441c0-.8.629-1.441 1.415-1.441s1.415.48 1.415 1.441zm7.55-3.683c0 .8-.63 1.441-1.416 1.441-.786 0-1.415-.64-1.415-1.44 0-.801.629-1.442 1.415-1.442s1.415.48 1.415 1.441zm-3.775 0c0 .8-.63 1.441-1.415 1.441-.787 0-1.416-.64-1.416-1.44 0-.801.63-1.442 1.416-1.442.786-.16 1.415.48 1.415 1.441zm-3.775 0c0 .8-.629 1.441-1.415 1.441s-1.415-.64-1.415-1.44c0-.801.629-1.442 1.415-1.442s1.415.48 1.415 1.441zm-3.931 0c0 .8-.63 1.441-1.416 1.441-.786 0-1.415-.64-1.415-1.44 0-.801.629-1.442 1.415-1.442.787-.16 1.416.48 1.416 1.441zm-3.775 0c0 .8-.629 1.441-1.415 1.441-.787 0-1.416-.64-1.416-1.44 0-.801.63-1.442 1.416-1.442.786-.16 1.415.48 1.415 1.441zm-3.774 0c0 .8-.63 1.441-1.416 1.441-.943 0-1.572-.64-1.572-1.44 0-.962.629-1.602 1.415-1.602.944 0 1.573.64 1.573 1.601zM59 32.51c0 .8-.629 1.441-1.415 1.441-.787 0-1.416-.64-1.416-1.44 0-.801.63-1.442 1.416-1.442.629-.16 1.415.48 1.415 1.441zm-3.932 0c0 .8-.629 1.441-1.415 1.441s-1.415-.64-1.415-1.44c0-.801.629-1.442 1.415-1.442s1.415.48 1.415 1.441zm-3.774 0c0 .8-.63 1.441-1.415 1.441-.787 0-1.416-.64-1.416-1.44 0-.801.63-1.442 1.416-1.442.786-.16 1.415.48 1.415 1.441zm-3.775 0c0 .8-.629 1.441-1.415 1.441s-1.415-.64-1.415-1.44c0-.801.629-1.442 1.415-1.442s1.415.48 1.415 1.441zm-3.931 0c0 .8-.63 1.441-1.416 1.441-.786 0-1.415-.64-1.415-1.44 0-.801.629-1.442 1.415-1.442.787-.16 1.416.48 1.416 1.441zm-3.775 0c0 .8-.629 1.441-1.415 1.441-.787 0-1.416-.64-1.416-1.44 0-.801.63-1.442 1.416-1.442.786-.16 1.415.48 1.415 1.441zm-3.774 0c0 .8-.63 1.441-1.416 1.441-.786 0-1.415-.64-1.415-1.44 0-.801.629-1.442 1.415-1.442.787-.16 1.416.48 1.416 1.441zm19.03-3.683c0 .801-.63 1.441-1.416 1.441-.786 0-1.415-.64-1.415-1.44 0-.801.629-1.442 1.415-1.442s1.415.64 1.415 1.441zm-3.775 0c0 .801-.63 1.441-1.415 1.441-.787 0-1.416-.64-1.416-1.44 0-.801.63-1.442 1.416-1.442.786-.16 1.415.64 1.415 1.441zm-3.775 0c0 .801-.629 1.441-1.415 1.441s-1.415-.64-1.415-1.44c0-.801.629-1.442 1.415-1.442s1.415.64 1.415 1.441zm-3.931 0c0 .801-.63 1.441-1.416 1.441-.786 0-1.415-.64-1.415-1.44 0-.801.629-1.442 1.415-1.442.787-.16 1.416.64 1.416 1.441zm-3.775 0c0 .801-.629 1.441-1.415 1.441-.787 0-1.416-.64-1.416-1.44 0-.801.63-1.442 1.416-1.442.786-.16 1.415.64 1.415 1.441zm-3.774 0c0 .801-.63 1.441-1.416 1.441-.786 0-1.415-.64-1.415-1.44 0-.801.629-1.442 1.415-1.442.787-.16 1.416.64 1.416 1.441zm15.255-3.682c0 .8-.63 1.44-1.415 1.44-.787 0-1.416-.64-1.416-1.44 0-.801.63-1.442 1.416-1.442.786-.16 1.415.64 1.415 1.442zm-3.775 0c0 .8-.629 1.44-1.415 1.44s-1.415-.64-1.415-1.44c0-.801.629-1.442 1.415-1.442s1.415.64 1.415 1.442zm0-3.683c0 .8-.629 1.44-1.415 1.44s-1.415-.64-1.415-1.44c0-.801.629-1.441 1.415-1.441s1.415.64 1.415 1.44z" fill="#fff"/></svg>