<svg width="65" height="65" fill="none" xmlns="http://www.w3.org/2000/svg"><circle cx="32.5" cy="32.5" r="32.5" fill="#003B71"/><path fill-rule="evenodd" clip-rule="evenodd" d="M46.37 25.01a6.823 6.823 0 0 0-4.854 2.02l-.11.11 1.711 1.7.107-.1a4.437 4.437 0 0 1 6.3 0l.107.1 1.708-1.7-.107-.11a6.82 6.82 0 0 0-4.857-2.02h-.005zm.005 4.2a2.67 2.67 0 0 0-1.885.78l-.1.11 1.986 1.98 1.992-1.98-.105-.11c-.5-.5-1.18-.78-1.887-.78h-.001zM46.376 18a13.838 13.838 0 0 0-9.828 4.07l-.11.11 1.709 1.7.109-.11a11.5 11.5 0 0 1 16.244 0l.109.11 1.706-1.7-.105-.11A13.853 13.853 0 0 0 46.376 18zm0 3.51a10.328 10.328 0 0 0-7.342 3.04l-.105.11 1.708 1.7.105-.11a7.98 7.98 0 0 1 11.271 0l.108.11 1.708-1.7-.1-.11a10.344 10.344 0 0 0-7.349-3.04h-.004zm-4.388 7.93H33v11.63h3.827v-4.64h4.4v-2.59h-4.4v-1.67h5.148v-2.73h.013zm6.287 3.24H44.46v8.39h3.819v-8.39h-.004zm-17.756-3.24H26.7v11.63h3.816V29.44h.003zm-6.268 0h-3.629l-1.1 5.81-1.616-5.81h-3.552l-1.611 5.81-1.1-5.81H8l1.213 5.43 1.383 6.2h3.676l1.87-6.73.529 1.89 1.318 4.72.033.12h3.674l2.566-11.63" fill="#fff"/></svg>