<svg width="65" height="65" fill="none" xmlns="http://www.w3.org/2000/svg"><circle cx="32.5" cy="32.5" r="32.5" fill="#003B71"/><path d="M26.991 21.088l3.46-5.788-4.297.55L28.558 9l-5.756 8.974 4.408-.33-1.166 3.444H11V49h42V21.088H26.991zm21.82 1.392v1.905h-6.12v-1.942h6.12v.037zM21.309 39.293a2.352 2.352 0 0 1-.365-.476h.365v.476zm.765-.476h2.622c-.072.22-.218.403-.4.586-.364.293-.838.44-1.42.44-.292 0-.547-.037-.766-.11v-.916h-.036zm-.765-7.62h-.182c.073-.11.109-.182.182-.292v.293zm.765-.805c.218-.073.437-.11.728-.11.51 0 .91.147 1.239.44.182.146.291.33.364.512H22.11v-.842h-.036zm6.047 3.297v1.795c-.401-.33-.911-.587-1.53-.77a3.675 3.675 0 0 0 1.53-1.025zm-3.68-1.685a1.275 1.275 0 0 1-.364.732c-.255.33-.801.477-1.675.477h-.365v-1.21h2.405zm-1.712 4.542c.547 0 .948.036 1.166.146.219.11.437.293.62.55.181.22.254.476.29.769h-2.731v-1.502h.655v.037zm9.872-4.542h.11l1.602 6.044h-1.712v-6.044zm4.043 0h1.895l-.911 3.553-.984-3.553zm4.954 0h.11v6.044h-1.64l1.53-6.044zm-1.748-4.945l-1.093 4.175h-2.295L35.843 29v-3.846h6.083v1.868H39.85v.037zm-4.772 0h-6.12V25.19h6.12v1.868zm-6.921 0h-.036v1.721c-.219-.256-.438-.513-.729-.732-1.056-.806-2.44-1.246-4.19-1.246-.4 0-.764.037-1.092.074v-1.722h6.12v1.905h-.073zm-6.848-.037a6.039 6.039 0 0 0-2.15.989c-1.056.77-1.784 1.832-2.149 3.187h-1.82v-6.044h6.082v1.868h.037zm-1.275 4.982l.728.11c0-.037.037-.074.037-.11h.473v1.172h-.51v3.333h.51v1.502h-.692c-.036-.11-.073-.256-.109-.366l-3.06.366h-2.258v-6.007h4.88zm-3.497 6.813c.765 2.417 2.331 3.846 4.735 4.322v1.722h-6.046v-6.044h1.31zm5.537 4.432c.364.037.728.073 1.129.073 1.858 0 3.351-.44 4.517-1.282.146-.11.291-.22.4-.33v1.356h.073v1.795h-6.12v-1.612zm6.884-.183h3.643v-4.25h1.93l.547 2.016v4.029h-6.12v-1.795zm6.885 0h2.914l1.093-4.25h1.858v4.25h.218v1.795h-6.083v-1.795zm6.848 0h3.534v-4.25h2.55v6.045H42.69v-1.795zm3.534-5.018v-6.044h2.55v6.044h-2.55zm0-6.85v-4.14H42.69v-1.867h6.12v6.043h-2.586v-.036zm-4.299-8.718v1.905h-6.083v-1.942h6.083v.037zm-6.848 0v1.905h-6.12v-1.942h6.12v.037zm-6.921 0v1.905h-3.133l1.166-1.942h1.967v.037zm-2.586 0l-.656 1.905h-2.841v-1.942h3.497v.037zm-4.262 0v1.905h-6.083v-1.942h6.083v.037zm-8.925 0h2.077v1.905h-2.077V22.48zm0 2.674h2.077v6.044h-2.077v-6.044zm0 6.85h2.077v6.044h-2.077v-6.044zm0 6.813h2.077v6.044h-2.077v-6.044zm0 8.828V45.63h2.077v2.015h-2.077zm2.842 0V45.63h6.083v2.015h-6.083zm6.848 0V45.63h6.12v2.015h-6.12zm6.884 0V45.63h6.12v2.015h-6.12zm6.885 0V45.63h6.083v2.015h-6.083zm6.848 0V45.63h6.12v2.015h-6.12zm8.925 0h-2.04V45.63h2.04v2.015zm0-2.784h-2.04v-6.044h2.04v6.044zm0-6.813h-2.04v-6.044h2.04v6.044zm0-6.85h-2.04v-6.044h2.04v6.044zm0-6.813h-2.04v-1.942h2.04v1.942z" fill="#fff"/><path d="M35.77 17.132l2.66-4.432-2.004.256 1.129-3.223-2.696 4.212 2.04-.146-1.129 3.333z" fill="#fff"/></svg>