<svg width="65" height="65" fill="none" xmlns="http://www.w3.org/2000/svg"><circle cx="32.5" cy="32.5" r="32.5" fill="#003B71"/><path fill-rule="evenodd" clip-rule="evenodd" d="M30.329 31.644v-4.26c0-1.21 1.3-2.05 2.859-2.05s2.828.84 2.828 2.05l-.019 4.26h-5.668zm2.859-8.52c-3.134 0-5.676 1.98-5.676 4.42l-.026 4.1h-1.425a1.361 1.361 0 0 0-1.389 1.24l-.03 8.87a1.423 1.423 0 0 0 1.449 1.24h14.2a1.36 1.36 0 0 0 1.386-1.24l.031-8.87a1.425 1.425 0 0 0-1.45-1.24h-1.394v-4.1c0-2.44-2.538-4.42-5.676-4.42zm16.291 2.85a17.944 17.944 0 1 0-33.07 13.94 17.944 17.944 0 0 0 33.07-13.94zm-.517 6.97a16.01 16.01 0 1 1-32.019.058 16.01 16.01 0 0 1 32.02-.058z" fill="#fff"/></svg>