<svg width="155" height="42" fill="none" xmlns="http://www.w3.org/2000/svg"><path d="M21.005 41.962C9.741 41.962.508 32.673.508 21.249.508 9.917 9.74.629 21.005.629s20.498 9.288 20.498 20.62c0 11.424-9.14 20.713-20.498 20.713zm0-40.405c-10.802 0-19.574 8.824-19.574 19.692 0 10.867 8.772 19.691 19.574 19.691 10.803 0 19.575-8.824 19.575-19.691 0-10.775-8.772-19.692-19.575-19.692zm17.451 25.636h-.092c-.092 0-.092 0-.092-.093 0 0 .646-2.043.646-4.365 0-2.508-1.016-4.087-2.308-4.087-.831 0-1.385.557-1.385 1.393 0 1.58 1.846 1.672 1.846 5.016 0 1.393-.277 2.694-.738 4.087-2.124 7.152-8.772 10.496-15.328 10.496-3.046 0-5.17-.65-5.816-.93 0 0-.093-.092 0-.092l.092-.093c.277.093 2.124.65 4.34.65 2.492 0 3.97-1.021 3.97-2.322 0-.836-.647-1.393-1.385-1.393-1.57 0-1.662 1.95-4.986 1.95-1.385 0-2.678-.278-4.155-.743-7.017-2.043-10.341-8.73-10.341-15.418 0-3.251.923-5.852.923-5.852h.092c.093 0 .093.093.093.093-.093.279-.647 2.136-.647 4.366 0 2.507 1.016 3.994 2.309 3.994.738 0 1.385-.558 1.385-1.394 0-1.579-1.847-1.672-1.847-5.015 0-1.394.277-2.694.739-4.18C7.802 6.2 14.45 2.95 21.005 2.858c3.047 0 5.725.929 5.817.929v.092c0 .093-.092.093-.092.093s-1.754-.743-4.34-.743c-2.4 0-3.97 1.022-3.97 2.322 0 .743.554 1.394 1.385 1.394 1.57 0 1.662-1.858 4.986-1.858 1.385 0 2.678.279 4.155.743 7.11 2.136 10.341 8.917 10.341 15.419.092 3.344-.83 5.851-.83 5.944zM28.67 22.27c-1.939 0-3.416 1.394-3.416 3.159 0 1.393.83 2.6 2.031 2.6.37 0 .831-.185.831-.743 0-.743-1.016-.929-.923-2.043.092-.743.738-1.208 1.385-1.208 1.385 0 2.03 1.3 2.03 2.694-.091 2.136-1.569 3.622-3.415 3.622-2.401 0-3.878-2.322-3.878-4.737 0-3.622 2.4-5.108 3.6-5.387 0 0 3.232.557 3.14-.836-.092-.65-1.016-.836-1.662-.929-.739 0-1.477.279-1.477.279-.37-.186-.647-.557-.831-1.022 2.308-1.765 3.97-3.53 3.97-5.387 0-1.022-.646-1.95-2.031-1.95-2.309 0-4.063 2.972-4.063 5.665 0 .465 0 .93.092 1.3-1.477 1.115-2.585 1.765-4.524 2.973 0-.279.093-.929.185-1.765.646-.743 1.662-1.858 1.662-2.693 0-.372-.185-.744-.647-.744-1.107 0-2.03 1.672-2.215 2.88-.554.65-1.57 1.393-2.401 1.393-.646 0-.923-.65-.923-.836 2.123-.743 4.8-3.715 4.8-6.409 0-.557-.184-1.858-1.938-1.858-2.585 0-4.71 3.809-4.71 6.78-.922 0-1.292-.928-1.292-1.671s.277-1.486.277-1.672c0-.186-.092-.557-.461-.557-.831 0-1.385 1.114-1.385 2.415.092 1.858 1.292 2.972 2.862 3.065.185 1.115 1.2 2.136 2.4 2.136.74 0 1.663-.185 2.309-.836-.092.372-.092.743-.185 1.115-2.493 1.3-4.34 2.23-6.001 3.715-1.293 1.208-2.032 2.787-2.032 4.087 0 1.672 1.108 3.344 3.324 3.344 2.586 0 4.617-2.136 5.54-5.016.462-1.393.647-3.343.739-5.201 2.585-1.486 3.878-2.322 5.263-3.344.184.279.369.557.554.65-1.2.65-4.063 2.415-4.063 6.595 0 2.972 2.031 6.316 5.91 6.316 3.23 0 5.447-2.694 5.447-5.294-.092-2.508-1.385-4.645-3.878-4.645zm-15.697 7.99c-.831 0-1.385-.465-1.385-1.394 0-2.415 3.416-4.83 5.909-6.037-.37 3.344-1.57 7.245-4.524 7.43zm1.939-13.469c0-1.857 1.846-5.48 2.954-5.108 1.385.464-1.108 4.087-2.954 5.108zm10.71-.928c0-2.323 1.57-4.645 2.4-4.18 1.016.557-.646 2.693-2.4 4.18zm26.407 5.386c0-2.23 1.754-3.994 4.062-3.994 1.293 0 2.216.371 3.047 1.114l-1.2 1.487c-.554-.465-1.108-.744-1.847-.744-1.108 0-1.939.93-1.939 2.044 0 1.207.831 2.136 2.032 2.136.461 0 .923-.093 1.2-.278v-.93h-1.477v-1.578h3.416v3.436c-.831.65-1.939 1.208-3.232 1.208-2.308.093-4.062-1.58-4.062-3.901zm9.603-3.716h6.001v1.765h-3.97v1.115h3.6v1.672h-3.6v1.207h4.062v1.765h-6.093v-7.524zm14.865-.093h2.031l3.232 7.617h-2.216l-.554-1.393h-2.862l-.554 1.393h-2.216l3.139-7.616zm1.847 4.645l-.831-2.137-.831 2.137h1.662zm5.17-4.552h3.231c1.94 0 3.14 1.022 3.14 2.694 0 1.765-1.385 2.694-3.232 2.694h-1.016v2.136h-2.123v-7.524zm3.047 3.716c.738 0 1.2-.372 1.2-1.022s-.462-1.022-1.2-1.022h-1.016v2.044h1.016zm5.263-3.716h3.231c1.94 0 3.14 1.022 3.14 2.694 0 1.765-1.385 2.694-3.232 2.694h-1.016v2.136h-2.123v-7.524zm3.047 3.716c.738 0 1.2-.372 1.2-1.022s-.462-1.022-1.2-1.022h-1.016v2.044h1.016zm5.263-3.716h2.031V23.2h3.694v1.858h-5.725v-7.524zm9.786 0h-2.123v7.524h2.124v-7.524zm5.08-.093h2.03l3.232 7.617h-2.216l-.554-1.393h-2.862l-.554 1.393h-2.216l3.14-7.616zm1.846 4.645l-.831-2.137-.831 2.137h1.662zm5.17-4.552h1.939l3.047 3.994v-3.994h2.124v7.524h-1.847l-3.232-4.18v4.18h-2.031v-7.524zm9.234 3.716c0-2.23 1.662-3.994 3.97-3.994 1.57 0 2.493.65 3.232 1.579l-1.57 1.207c-.461-.557-.923-.929-1.662-.929-1.015 0-1.754.93-1.754 2.044 0 1.115.739 2.043 1.754 2.043.739 0 1.2-.371 1.662-.928l1.57 1.114c-.739 1.022-1.662 1.672-3.324 1.672-2.124.186-3.878-1.486-3.878-3.808zm9.14-3.716h6.094v1.765h-4.063v1.115h3.694v1.672h-3.694v1.207h4.063v1.765h-6.094v-7.524zm7.663 6.409l1.2-1.393c.739.557 1.57.929 2.4.929.555 0 .832-.186.832-.557 0-.279-.277-.465-1.293-.743-1.57-.372-2.862-.836-2.862-2.415 0-1.394 1.108-2.415 2.955-2.415 1.292 0 2.308.371 3.139 1.021l-1.016 1.487c-.646-.465-1.477-.744-2.123-.744-.462 0-.739.186-.739.465 0 .371.277.464 1.293.743 1.754.372 2.77.929 2.77 2.322 0 1.58-1.2 2.508-3.047 2.508-1.293 0-2.586-.372-3.509-1.208z" fill="#0E416B"/></svg>